<?xml version="1.0" encoding="UTF-8"?>
<svg width="32px" height="24px" viewBox="0 0 32 24" version="1.1" xmlns="http://www.w3.org/2000/svg" xmlns:xlink="http://www.w3.org/1999/xlink">
    <!-- Generator: Sketch 48.1 (47250) - http://www.bohemiancoding.com/sketch -->
    <title>Nav/Win/icons/主机风险</title>
    <desc>Created with Sketch.</desc>
    <defs>
        <path d="M3,3 L10,3 C10.5522847,3 11,3.44771525 11,4 L11,20 C11,20.5522847 10.5522847,21 10,21 L3,21 C2.44771525,21 2,20.5522847 2,20 L2,4 C2,3.44771525 2.44771525,3 3,3 Z M4,6 L4,8 L9,8 L9,6 L4,6 Z M4,10 L4,12 L9,12 L9,10 L4,10 Z M5,15 L5,18 L8,18 L8,15 L5,15 Z" id="path-1"></path>
        <path d="M22,13 L15,13 C13.8954305,13 13,13.8954305 13,15 L13,4 C13,3.44771525 13.4477153,3 14,3 L21,3 C21.5522847,3 22,3.44771525 22,4 L22,13 Z M15,6 L15,8 L20,8 L20,6 L15,6 Z M15,10 L15,12 L20,12 L20,10 L15,10 Z" id="path-2"></path>
    </defs>
    <g id="Symbols" stroke="none" stroke-width="1" fill="none" fill-rule="evenodd">
        <g id="Nav/Win/icons/主机风险">
            <g id="ic_主机风险-win">
                <text id="Win-Copy" font-family="HelveticaNeue-Bold, Helvetica Neue" font-size="9" font-weight="bold" letter-spacing="0.0749999881" fill="#FFFFFF">
                    <tspan x="13" y="22">Win</tspan>
                </text>
                <g id="Combined-Shape">
                    <use fill="#FFFFFF" fill-rule="evenodd" xlink:href="#path-1"></use>
                    <path stroke-width="2" d="M3,4 L3,20 L10,20 L10,4 L3,4 Z M3,9 L3,5 L10,5 L10,9 L3,9 Z M3,13 L3,9 L10,9 L10,13 L3,13 Z M4,14 L9,14 L9,19 L4,19 L4,14 Z"></path>
                </g>
                <g id="Combined-Shape">
                    <use fill="#FFFFFF" fill-rule="evenodd" xlink:href="#path-2"></use>
                    <path stroke-width="2" d="M21,12 L21,4 L14,4 L14,12.1707057 C14.3127789,12.0601542 14.6493646,12 15,12 L21,12 Z M14,9 L14,5 L21,5 L21,9 L14,9 Z M14,9 L21,9 L21,13 L14,13 L14,9 Z"></path>
                </g>
            </g>
        </g>
    </g>
</svg>