<?xml version="1.0" encoding="UTF-8"?>
<svg width="24px" height="24px" viewBox="0 0 24 24" version="1.1" xmlns="http://www.w3.org/2000/svg" xmlns:xlink="http://www.w3.org/1999/xlink">
    <!-- Generator: Sketch 48.1 (47250) - http://www.bohemiancoding.com/sketch -->
    <title>Nav/Linux/icons/系统管理</title>
    <desc>Created with Sketch.</desc>
    <defs></defs>
    <g id="Symbols" stroke="none" stroke-width="1" fill="none" fill-rule="evenodd">
        <g id="Nav/Linux/icons/系统管理" fill="#FFFFFF" fill-rule="nonzero">
            <g id="ic_系统管理">
                <path d="M18.7586708,12.98 C18.7977369,12.66 18.8270364,12.34 18.8270364,12 C18.8270364,11.66 18.7977369,11.34 18.7586708,11.02 L20.8194035,9.37 C21.0049671,9.22 21.0537997,8.95 20.9366016,8.73 L18.9833005,5.27 C18.8661024,5.05 18.6024068,4.97 18.3875436,5.05 L15.9556837,6.05 C15.4478254,5.65 14.9009011,5.32 14.3051443,5.07 L13.9340171,2.42 C13.9047176,2.18 13.6996209,2 13.4554583,2 L9.54885605,2 C9.30469341,2 9.09959679,2.18 9.07029727,2.42 L8.69917006,5.07 C8.10341322,5.32 7.5564889,5.66 7.04863061,6.05 L4.61677071,5.05 C4.39214109,4.96 4.13821194,5.05 4.02101387,5.27 L2.06771275,8.73 C1.94074818,8.95 1.99934721,9.22 2.18491082,9.37 L4.2456435,11.02 C4.20657748,11.34 4.17727796,11.67 4.17727796,12 C4.17727796,12.33 4.20657748,12.66 4.2456435,12.98 L2.18491082,14.63 C1.99934721,14.78 1.95051468,15.05 2.06771275,15.27 L4.02101387,18.73 C4.13821194,18.95 4.40190759,19.03 4.61677071,18.95 L7.04863061,17.95 C7.5564889,18.35 8.10341322,18.68 8.69917006,18.93 L9.07029727,21.58 C9.09959679,21.82 9.30469341,22 9.54885605,22 L13.4554583,22 C13.6996209,22 13.9047176,21.82 13.9340171,21.58 L14.3051443,18.93 C14.9009011,18.68 15.4478254,18.34 15.9556837,17.95 L18.3875436,18.95 C18.6121733,19.04 18.8661024,18.95 18.9833005,18.73 L20.9366016,15.27 C21.0537997,15.05 21.0049671,14.78 20.8194035,14.63 L18.7586708,12.98 Z M11.5021572,15.5 C9.61722159,15.5 8.08388021,13.93 8.08388021,12 C8.08388021,10.07 9.61722159,8.5 11.5021572,8.5 C13.3870928,8.5 14.9204341,10.07 14.9204341,12 C14.9204341,13.93 13.3870928,15.5 11.5021572,15.5 Z" id="Shape"></path>
            </g>
        </g>
    </g>
</svg>