<?xml version="1.0" encoding="UTF-8"?>
<svg width="24px" height="24px" viewBox="0 0 24 24" version="1.1" xmlns="http://www.w3.org/2000/svg" xmlns:xlink="http://www.w3.org/1999/xlink">
    <!-- Generator: Sketch 48.1 (47250) - http://www.bohemiancoding.com/sketch -->
    <title>Nav/通用/icons/权限管理</title>
    <desc>Created with Sketch.</desc>
    <defs>
        <path d="M14,18 L16,18 L16,17 L14,17 L14,16 L16,16 L16,14 L14,14 L14,12.7439414 C15.7477886,12.1261868 17,10.4593282 17,8.5 C17,6.01471863 14.9852814,4 12.5,4 C10.0147186,4 8,6.01471863 8,8.5 C8,10.4593282 9.25221144,12.1261868 11,12.7439414 L11,19 L14,19 L14,18 Z M12.5,22 C6.70101013,22 2,17.2989899 2,11.5 C2,5.70101013 6.70101013,1 12.5,1 C18.2989899,1 23,5.70101013 23,11.5 C23,17.2989899 18.2989899,22 12.5,22 Z M12.5,10 C11.6715729,10 11,9.32842712 11,8.5 C11,7.67157288 11.6715729,7 12.5,7 C13.3284271,7 14,7.67157288 14,8.5 C14,9.32842712 13.3284271,10 12.5,10 Z" id="path-1"></path>
    </defs>
    <g id="Symbols" stroke="none" stroke-width="1" fill="none" fill-rule="evenodd">
        <g id="Nav/通用/icons/权限管理">
            <g id="ic_权限管理">
                <g id="Combined-Shape">
                    <use fill="#FFFFFF" fill-rule="evenodd" xlink:href="#path-1"></use>
                    <path stroke="#FFFFFF" stroke-width="2" d="M15,19 L15,20 L10,20 L10,13.4003779 C8.18925644,12.476445 7,10.6013223 7,8.5 C7,5.46243388 9.46243388,3 12.5,3 C15.5375661,3 18,5.46243388 18,8.5 C18,10.3321377 17.0959209,11.9923174 15.6640922,13 L17,13 L17,19 L15,19 Z M12.5,21 C17.7467051,21 22,16.7467051 22,11.5 C22,6.25329488 17.7467051,2 12.5,2 C7.25329488,2 3,6.25329488 3,11.5 C3,16.7467051 7.25329488,21 12.5,21 Z M12.5,9 C12.7761424,9 13,8.77614237 13,8.5 C13,8.22385763 12.7761424,8 12.5,8 C12.2238576,8 12,8.22385763 12,8.5 C12,8.77614237 12.2238576,9 12.5,9 Z"></path>
                </g>
                <g id="key" transform="translate(8.000000, 4.000000)"></g>
            </g>
        </g>
    </g>
</svg>