<?xml version="1.0" encoding="UTF-8"?>
<svg width="24px" height="24px" viewBox="0 0 24 24" version="1.1" xmlns="http://www.w3.org/2000/svg" xmlns:xlink="http://www.w3.org/1999/xlink">
    <!-- Generator: Sketch 48.1 (47250) - http://www.bohemiancoding.com/sketch -->
    <title>Nav/通用/icons/规则更新</title>
    <desc>Created with Sketch.</desc>
    <defs>
        <path d="M12.5,22 C6.70101013,22 2,17.2989899 2,11.5 C2,5.70101013 6.70101013,1 12.5,1 C18.2989899,1 23,5.70101013 23,11.5 C23,17.2989899 18.2989899,22 12.5,22 Z M11,11 L11,18 L14,18 L14,11 L11,11 Z M13.2371541,5.80416815 C13.2175772,5.78281145 13.1970813,5.76231561 13.1757246,5.74273864 C12.7686056,5.36954623 12.1360383,5.39704916 11.7628459,5.80416815 L8.53608091,9.32427537 C8.36702024,9.5087052 8.27323505,9.74980833 8.27323505,10 C8.27323505,10.5522847 8.7209503,11 9.27323505,11 L15.726765,11 C15.9769566,11 16.2180598,10.9062148 16.4024896,10.7371541 C16.8096086,10.3639617 16.8371115,9.73139436 16.4639191,9.32427537 L13.2371541,5.80416815 Z" id="path-1"></path>
    </defs>
    <g id="Symbols" stroke="none" stroke-width="1" fill="none" fill-rule="evenodd">
        <g id="Nav/通用/icons/规则更新">
            <g id="服务工具">
                <g id="Combined-Shape">
                    <use fill="#FFFFFF" fill-rule="evenodd" xlink:href="#path-1"></use>
                    <path stroke="#FFFFFF" stroke-width="2" d="M12.5,21 C17.7467051,21 22,16.7467051 22,11.5 C22,6.25329488 17.7467051,2 12.5,2 C7.25329488,2 3,6.25329488 3,11.5 C3,16.7467051 7.25329488,21 12.5,21 Z M10,19 L10,10 L15,10 L15,19 L10,19 Z M13.9743083,5.12844352 L17.2010732,8.64855074 C17.947458,9.46278872 17.8924522,10.7279235 17.0782142,11.4743083 C16.7093546,11.8124296 16.2271483,12 15.726765,12 L9.27323505,12 C8.16866555,12 7.27323505,11.1045695 7.27323505,10 C7.27323505,9.49961666 7.46080542,9.01741039 7.79892677,8.64855074 L11.0256917,5.12844352 C11.7720765,4.31420554 13.0372113,4.25919969 13.8514493,5.0055845 C13.8941627,5.04473845 13.9351543,5.08573013 13.9743083,5.12844352 Z"></path>
                </g>
            </g>
        </g>
    </g>
</svg>