<?xml version="1.0" encoding="UTF-8"?>
<svg width="32px" height="24px" viewBox="0 0 32 24" version="1.1" xmlns="http://www.w3.org/2000/svg" xmlns:xlink="http://www.w3.org/1999/xlink">
    <!-- Generator: Sketch 48.1 (47250) - http://www.bohemiancoding.com/sketch -->
    <title>Nav/Win/icons/系统管理</title>
    <desc>Created with Sketch.</desc>
    <defs></defs>
    <g id="Symbols" stroke="none" stroke-width="1" fill="none" fill-rule="evenodd">
        <g id="Nav/Win/icons/系统管理" fill="#FFFFFF">
            <g id="ic_系统管理-win">
                <text id="Win-Copy-4" font-family="HelveticaNeue-Bold, Helvetica Neue" font-size="9" font-weight="bold" letter-spacing="0.0749999881">
                    <tspan x="14" y="22">Win</tspan>
                </text>
                <path d="M19.1849074,13 L15.0838295,13 C15.1784798,12.6830292 15.2293316,12.3473447 15.2293316,12 C15.2293316,10.07 13.6593316,8.5 11.7293316,8.5 C9.7993316,8.5 8.2293316,10.07 8.2293316,12 C8.2293316,13.93 9.7993316,15.5 11.7293316,15.5 C11.8203983,15.5 11.9106634,15.4965045 12,15.4896407 L12,16 L13.3333333,22 L9.7293316,22 C9.4793316,22 9.2693316,21.82 9.2393316,21.58 L8.8593316,18.93 C8.2493316,18.68 7.6893316,18.35 7.1693316,17.95 L4.6793316,18.95 C4.4593316,19.03 4.1893316,18.95 4.0693316,18.73 L2.0693316,15.27 C1.9493316,15.05 1.9993316,14.78 2.1893316,14.63 L4.2993316,12.98 C4.2593316,12.66 4.2293316,12.33 4.2293316,12 C4.2293316,11.67 4.2593316,11.34 4.2993316,11.02 L2.1893316,9.37 C1.9993316,9.22 1.9393316,8.95 2.0693316,8.73 L4.0693316,5.27 C4.1893316,5.05 4.4493316,4.96 4.6793316,5.05 L7.1693316,6.05 C7.6893316,5.66 8.2493316,5.32 8.8593316,5.07 L9.2393316,2.42 C9.2693316,2.18 9.4793316,2 9.7293316,2 L13.7293316,2 C13.9793316,2 14.1893316,2.18 14.2193316,2.42 L14.5993316,5.07 C15.2093316,5.32 15.7693316,5.65 16.2893316,6.05 L18.7793316,5.05 C18.9993316,4.97 19.2693316,5.05 19.3893316,5.27 L21.3893316,8.73 C21.5093316,8.95 21.4593316,9.22 21.2693316,9.37 L19.1593316,11.02 C19.1993316,11.34 19.2293316,11.66 19.2293316,12 C19.2293316,12.34 19.1993316,12.66 19.1593316,12.98 L19.1849074,13 Z" id="Combined-Shape" fill-rule="nonzero"></path>
            </g>
        </g>
    </g>
</svg>