<?xml version="1.0" encoding="UTF-8"?>
<svg width="32px" height="24px" viewBox="0 0 32 24" version="1.1" xmlns="http://www.w3.org/2000/svg" xmlns:xlink="http://www.w3.org/1999/xlink">
    <!-- Generator: Sketch 48.1 (47250) - http://www.bohemiancoding.com/sketch -->
    <title>Nav/Win/icons/入侵检测</title>
    <desc>Created with Sketch.</desc>
    <defs></defs>
    <g id="Symbols" stroke="none" stroke-width="1" fill="none" fill-rule="evenodd">
        <g id="Nav/Win/icons/入侵检测">
            <g id="侧边栏/win/入侵检测">
                <path d="M21.8644,13.6495277 C21.3524445,13.2428988 20.7045883,13 20,13 L19.9381763,13 C19.9789812,12.6724202 20,12.338676 20,12 C20,9.79 19.1,7.79 17.66,6.34 L19.07,4.93 C20.88,6.74 22,9.24 22,12 C22,12.5618251 21.953591,13.1128766 21.8644,13.6495277 Z M13.4777792,21.8914072 C12.9955149,21.9629396 12.5020591,22 12,22 C6.48,22 2,17.52 2,12 C2,6.48 6.48,2 12,2 L13,2 L13,10.28 C13.6,10.62 14,11.26 14,12 C14,13.1 13.1,14 12,14 C10.9,14 10,13.1 10,12 C10,11.26 10.4,10.63 11,10.28 L11,8.14 C9.28,8.59 8,10.14 8,12 C8,14.21 9.79,16 12,16 L12.4949523,17.9798094 C12.3317158,17.9931817 12.1666437,18 12,18 C8.69,18 6,15.31 6,12 C6,9.03 8.16,6.57 11,6.09 L11,4.07 C7.05,4.56 4,7.92 4,12 C4,16.42 7.58,20 12,20 C12.3335107,20 12.6622388,19.9796175 12.9850074,19.9400295 L13.4319017,21.7276069 C13.4457258,21.7829031 13.4610346,21.8375159 13.4777792,21.8914072 Z M15.8741097,13 C15.9562942,12.6804063 16,12.3453306 16,12 C16,10.9 15.55,9.9 14.83,9.17 L16.24,7.76 C17.33,8.84 18,10.34 18,12 C18,12.3406523 17.9715083,12.6747378 17.9167812,13 L15.8741097,13 Z" id="Combined-Shape" fill="#FFFFFF" fill-rule="nonzero"></path>
                <text id="Win-Copy-4" font-family="HelveticaNeue-Bold, Helvetica Neue" font-size="9" font-weight="bold" letter-spacing="0.0749999881" fill="#FFFFFF">
                    <tspan x="14" y="22">Win</tspan>
                </text>
            </g>
        </g>
    </g>
</svg>