<?xml version="1.0" encoding="UTF-8"?>
<svg width="24px" height="24px" viewBox="0 0 24 24" version="1.1" xmlns="http://www.w3.org/2000/svg" xmlns:xlink="http://www.w3.org/1999/xlink">
    <!-- Generator: Sketch 48.1 (47250) - http://www.bohemiancoding.com/sketch -->
    <title>Nav/通用/icons/服务工具</title>
    <desc>Created with Sketch.</desc>
    <defs></defs>
    <g id="Symbols" stroke="none" stroke-width="1" fill="none" fill-rule="evenodd">
        <g id="Nav/通用/icons/服务工具" fill="#FFFFFF">
            <g id="服务工具">
                <path d="M12,22 C6.4771525,22 2,17.5228475 2,12 C2,6.4771525 6.4771525,2 12,2 C17.5228475,2 22,6.4771525 22,12 C22,17.5228475 17.5228475,22 12,22 Z M16.4324398,5.98277234 C14.9645022,5.28346304 13.182134,5.51890921 11.9980057,6.70303752 C10.9618993,7.73914392 10.6521195,9.23327252 11.0593365,10.5740158 C10.9042493,10.6614114 10.7583418,10.7711285 10.6263032,10.9031672 L6.5962175,14.9332529 C5.81516892,15.7143015 5.81516892,16.9806314 6.5962175,17.76168 C7.37726609,18.5427286 8.64359604,18.5427286 9.42464463,17.76168 L13.4547303,13.7315943 C13.586769,13.5995557 13.6964861,13.4536482 13.7838817,13.298561 C15.124625,13.705778 16.6187536,13.3959982 17.65486,12.3598918 C18.8389883,11.1757635 19.0744345,9.3933953 18.3751252,7.92545768 L16.2406464,10.9456782 L13.4122193,8.11725108 L16.4324398,5.98277234 Z" id="Combined-Shape"></path>
            </g>
        </g>
    </g>
</svg>