<?xml version="1.0" encoding="UTF-8"?>
<svg width="24px" height="24px" viewBox="0 0 24 24" version="1.1" xmlns="http://www.w3.org/2000/svg" xmlns:xlink="http://www.w3.org/1999/xlink">
    <!-- Generator: Sketch 48.1 (47250) - http://www.bohemiancoding.com/sketch -->
    <title>Nav/Linux/icons/主机风险</title>
    <desc>Created with Sketch.</desc>
    <defs>
        <path d="M2,3 L11,3 L11,21 L2,21 L2,3 Z M4,6 L4,8 L9,8 L9,6 L4,6 Z M4,10 L4,12 L9,12 L9,10 L4,10 Z M5,15 L5,18 L8,18 L8,15 L5,15 Z" id="path-1"></path>
        <path d="M13,3 L22,3 L22,21 L13,21 L13,3 Z M15,6 L15,8 L20,8 L20,6 L15,6 Z M15,10 L15,12 L20,12 L20,10 L15,10 Z M16,15 L16,18 L19,18 L19,15 L16,15 Z" id="path-2"></path>
    </defs>
    <g id="Symbols" stroke="none" stroke-width="1" fill="none" fill-rule="evenodd">
        <g id="Nav/Linux/icons/主机风险">
            <g id="ic_主机风险">
                <g id="Combined-Shape">
                    <use fill-rule="evenodd" xlink:href="#path-1"></use>
                    <path stroke-width="2" d="M3,4 L3,20 L10,20 L10,4 L3,4 Z M3,9 L3,5 L10,5 L10,9 L3,9 Z M3,13 L3,9 L10,9 L10,13 L3,13 Z M4,14 L9,14 L9,19 L4,19 L4,14 Z"></path>
                </g>
                <g id="Combined-Shape-Copy">
                    <use fill-rule="evenodd" xlink:href="#path-2"></use>
                    <path stroke-width="2" d="M14,4 L14,20 L21,20 L21,4 L14,4 Z M14,9 L14,5 L21,5 L21,9 L14,9 Z M14,13 L14,9 L21,9 L21,13 L14,13 Z M15,14 L20,14 L20,19 L15,19 L15,14 Z"></path>
                </g>
            </g>
        </g>
    </g>
</svg>