<?xml version="1.0" encoding="UTF-8"?>
<svg width="24px" height="24px" viewBox="0 0 24 24" version="1.1" xmlns="http://www.w3.org/2000/svg" xmlns:xlink="http://www.w3.org/1999/xlink">
    <!-- Generator: Sketch 48.1 (47250) - http://www.bohemiancoding.com/sketch -->
    <title>Nav/通用/icons/IP通用设置</title>
    <desc>Created with Sketch.</desc>
    <defs></defs>
    <g id="Symbols" stroke="none" stroke-width="1" fill="none" fill-rule="evenodd">
        <g id="Nav/通用/icons/IP通用设置" fill="#FFFFFF">
            <g id="IP">
                <path d="M6,3 L17,3 C19.209139,3 21,4.790861 21,7 L21,18 C21,20.209139 19.209139,22 17,22 L6,22 C3.790861,22 2,20.209139 2,18 L2,7 C2,4.790861 3.790861,3 6,3 Z M6,8 L6,18 L8,18 L8,8 L6,8 Z M10,8 L10,18 L12.2073814,18 L12.2073814,14.4145658 L14.5272408,14.4145658 C15.1552463,14.4145658 15.6895116,14.3235303 16.1300527,14.1414566 C16.5705939,13.9593828 16.929114,13.7189557 17.2056239,13.4201681 C17.4821338,13.1213804 17.6836549,12.7782466 17.8101933,12.3907563 C17.9367317,12.003266 18,11.6087789 18,11.2072829 C18,10.7964499 17.9367317,10.3996284 17.8101933,10.0168067 C17.6836549,9.63398501 17.4821338,9.29318543 17.2056239,8.99439776 C16.929114,8.69561008 16.5705939,8.45518298 16.1300527,8.27310924 C15.6895116,8.0910355 15.1552463,8 14.5272408,8 L10,8 Z" id="Combined-Shape"></path>
                <path d="M12.4106667,12.708 L14.1186667,12.708 C14.3706679,12.708 14.6133322,12.6893335 14.8466667,12.652 C15.0800012,12.6146665 15.2853324,12.5423339 15.4626667,12.435 C15.6400009,12.3276661 15.7823328,12.176001 15.8896667,11.98 C15.9970005,11.783999 16.0506667,11.5273349 16.0506667,11.21 C16.0506667,10.8926651 15.9970005,10.636001 15.8896667,10.44 C15.7823328,10.243999 15.6400009,10.0923339 15.4626667,9.985 C15.2853324,9.87766613 15.0800012,9.80533352 14.8466667,9.768 C14.6133322,9.73066648 14.3706679,9.712 14.1186667,9.712 L12.4106667,9.712 L12.4106667,12.708 Z" id="Path"></path>
            </g>
        </g>
    </g>
</svg>