<?xml version="1.0" encoding="UTF-8"?>
<svg width="24px" height="24px" viewBox="0 0 24 24" version="1.1" xmlns="http://www.w3.org/2000/svg" xmlns:xlink="http://www.w3.org/1999/xlink">
    <!-- Generator: Sketch 48.1 (47250) - http://www.bohemiancoding.com/sketch -->
    <title>Nav/Linux/icons/合规基线</title>
    <desc>Created with Sketch.</desc>
    <defs></defs>
    <g id="Symbols" stroke="none" stroke-width="1" fill="none" fill-rule="evenodd">
        <g id="Nav/Linux/icons/合规基线" fill="#FFFFFF">
            <g id="ic_合规基线">
                <path d="M7.8469648,11.0503694 L6.8852236,12 L5.9234824,11.0503694 L4,9.15110813 L4.9617412,8.2014775 L6.8852236,10.1007388 L11.0382588,6 L12,6.94963062 L7.8469648,11.0503694 Z M12,11 L12,9 L20,9 L20,11 L12,11 Z M7,19 C5.8954305,19 5,18.1045695 5,17 C5,15.8954305 5.8954305,15 7,15 C8.1045695,15 9,15.8954305 9,17 C9,18.1045695 8.1045695,19 7,19 Z M12,18 L20,18 L20,16 L12,16 L12,18 Z M18.2857143,3 L4.71428571,3 C3.22142857,3 2,3.95 2,5.11111111 L2,19.8888889 C2,21.05 3.22142857,22 4.71428571,22 L18.2857143,22 C19.7785714,22 21,21.05 21,19.8888889 L21,5.11111111 C21,3.95 19.7785714,3 18.2857143,3 L18.2857143,3 Z"></path>
            </g>
        </g>
    </g>
</svg>