<?xml version="1.0" encoding="UTF-8"?>
<svg width="120px" height="32px" viewBox="0 0 120 32" version="1.1" xmlns="http://www.w3.org/2000/svg" xmlns:xlink="http://www.w3.org/1999/xlink">
    <!-- Generator: Sketch 48.1 (47250) - http://www.bohemiancoding.com/sketch -->
    <title>Nav/Linux/icons/侧边栏产品logo</title>
    <desc>Created with Sketch.</desc>
    <defs></defs>
    <g id="Symbols" stroke="none" stroke-width="1" fill="none" fill-rule="evenodd">
        <g id="Nav/Linux/icons/侧边栏产品logo" fill="#CCCCCC">
            <g id="LOGO-Copy" transform="translate(0.000000, 2.000000)">
                <path d="M17.4720257,27.9272771 L6.18931009,27.9272771 C5.98842936,27.9272771 5.82531009,27.7644147 5.82531009,27.5632771 L5.82531009,27.1992771 C5.82531009,25.590433 7.1292367,24.2865064 8.73808073,24.2865064 L20.0246495,24.2865064 C20.2257872,24.2865064 20.3886495,24.4493688 20.3886495,24.6505064 L20.3886495,25.0106532 C20.3886495,26.6215523 19.0829248,27.9272771 17.4720257,27.9272771" id="Fill-4"></path>
                <path d="M15.3158972,14.4077982 C15.3158972,17.4508073 12.8488147,19.9173761 9.80631927,19.9173761 L9.17490642,19.9173761 C6.13189725,19.9173761 3.66532844,17.4508073 3.66532844,14.4077982 L3.66532844,6.10155963 C3.66532844,4.88445872 4.65175046,3.89777982 5.86910826,3.89777982 L13.1118606,3.89777982 C14.3289615,3.89777982 15.3158972,4.88445872 15.3158972,6.10155963 L15.3158972,14.4077982 Z M14.5632367,0.257009174 L4.36892477,0.257009174 C1.95604404,0.257009174 -0.000102752294,2.21289908 -0.000102752294,4.62577982 L-0.000102752294,15.9123486 C-0.000102752294,19.9340734 3.25997064,23.1941468 7.28195229,23.1941468 L11.6507229,23.1941468 C15.6721908,23.1941468 18.9322642,19.9340734 18.9322642,15.9123486 L18.9322642,4.62577982 C18.9322642,2.21289908 16.9763743,0.257009174 14.5632367,0.257009174 Z" id="Fill-1"></path>
                <path d="M58.296745,17.5224771 L56.6696624,16.6991743 L55.7888183,18.0393211 L55.1764147,17.7331193 L55.1764147,15.2634679 L53.2811486,15.2634679 L53.2811486,17.9627706 L52.7830569,18.1541468 L51.6538092,16.7567156 L50.256378,17.6182936 L51.2135156,18.8433578 C51.2135156,18.8433578 49.5861761,19.5133028 48.9545064,19.743211 L49.7968183,21.3512844 C50.8497725,20.8534495 52.0748367,20.260055 53.2811486,19.6473945 L53.2811486,20.0355413 C53.2811486,20.4039083 52.9823963,20.7024037 52.6137725,20.7018899 L51.6730752,20.7003486 L52.020378,21.8229174 C52.1100294,22.112422 52.3828367,22.2924954 52.6856991,22.2924954 C52.9197174,22.2924954 53.3846716,22.2888991 53.8501394,22.2845321 C54.5845615,22.2773394 55.1764147,21.6803486 55.1764147,20.9459266 L55.1764147,19.5901101 L57.8564514,21.4085688 L59.1200477,20.0686789 C58.6222128,19.7049358 57.1287083,18.7858165 57.1287083,18.7858165 L58.296745,17.5224771 Z M45.2788,12.2386972 L46.6954972,12.2386972 L46.6954972,10.7071743 L45.2788,10.7071743 L45.2788,12.2386972 Z M46.6954972,15.5696697 L45.2597908,15.5696697 C45.2788,15.0718349 45.2788,14.6125321 45.2788,14.1722385 L45.2788,13.9423303 L46.6954972,13.9423303 L46.6954972,15.5696697 Z M57.7413688,14.6508073 L59.8858092,14.6508073 L59.8858092,13.1192844 L53.8935523,13.1192844 C54.0279009,12.8130826 54.1234606,12.5258899 54.2380294,12.200422 L59.2921578,12.200422 L59.2921578,10.7071743 L57.6517174,10.7071743 L58.4881211,9.13737615 L58.4662862,9.13172477 L56.3788734,9.13172477 L56.2162679,9.49084404 L55.6413688,10.7071743 L54.697589,10.7071743 C54.8065064,10.2098532 54.9141394,9.67425688 55.0025064,9.13172477 L53.0818092,9.13172477 C53.0037174,9.68453211 52.8953138,10.212422 52.7643046,10.7071743 L52.3725615,10.7071743 L51.7979193,9.49084404 L51.7976624,9.49110092 L51.6281211,9.13172477 L49.8343229,9.13172477 L49.8158275,9.13737615 L50.5052954,10.7071743 L49.4330752,10.7071743 L49.4330752,12.200422 L52.2857358,12.200422 C52.151644,12.5258899 51.9982862,12.8130826 51.8261761,13.1192844 L49.0313138,13.1192844 L49.0313138,14.6508073 L50.6583963,14.6508073 C50.084011,15.2251927 49.3948,15.7037615 48.6100294,16.1057798 L48.6100294,9.13172477 L43.4410752,9.13172477 L43.4410752,14.1529725 C43.4410752,16.3737064 43.3265064,19.3411927 42.1199376,21.4085688 C42.5229835,21.6382202 43.2530385,22.1013761 43.7092587,22.4232477 C44.5323046,21.0065505 44.953589,19.1115413 45.1449651,17.2735596 L46.6954972,17.2735596 L46.6957541,20.0208991 C46.6957541,20.3905505 46.3962312,20.6903303 46.0265798,20.690844 L45.4280477,20.6916147 L45.7619927,21.7127156 C45.8480477,22.0019633 46.1141761,22.2000183 46.4162679,22.2002752 C46.6189468,22.200789 46.7764147,22.1987339 47.0990569,22.1956514 C47.9352037,22.1884587 48.6100294,21.5084954 48.6100294,20.6726055 L48.6100294,16.4119817 C48.9234239,16.7919083 49.3012954,17.246844 49.6629835,17.675578 C51.0794239,16.8908073 52.1703963,15.9144037 53.0324881,14.6508073 L55.6164514,14.6508073 C56.3632037,16.0292294 57.5119743,17.0821835 59.1388,17.6182936 C59.4735156,17.1795413 59.9698092,16.5304037 60.3453688,16.0675046 C59.2731486,15.7993211 58.3923046,15.3017431 57.7413688,14.6508073 Z M46.8485982,8.36493578 L49.1078642,8.36493578 L49.1078642,7.5100367 L53.185589,7.5100367 L53.185589,8.36493578 L55.4633505,8.36493578 L55.4633505,7.5100367 L58.4002679,7.5100367 C59.1362312,7.5100367 59.7327083,6.91381651 59.7327083,6.17785321 L59.7327083,5.67231193 L55.4633505,5.67231193 L55.4633505,5.65022018 C55.4633505,5.01752294 54.9506165,4.50478899 54.3179193,4.50478899 L53.185589,4.50478899 L53.185589,5.67231193 L49.1078642,5.67231193 L49.1078642,4.50478899 L48.0161211,4.50478899 C47.3713505,4.50478899 46.8485982,5.02754128 46.8485982,5.67231193 L44.0069835,5.67231193 C43.2610018,5.67231193 42.6560477,6.27726606 42.6560477,7.02324771 L42.6560477,7.5100367 L46.8485982,7.5100367 L46.8485982,8.36493578 Z M33.0779927,9.57587156 L36.9915706,9.57587156 C37.7290752,9.57587156 38.3268367,8.97811009 38.3268367,8.2406055 L38.3268367,7.92207339 L33.0779927,7.92207339 L33.0779927,7.03634862 L37.8577725,7.03634862 C38.5952771,7.03634862 39.1930385,6.43833028 39.1930385,5.70082569 L39.1930385,5.28416514 L33.0779927,5.28416514 L33.0779927,4.28001835 L31.6998275,4.28001835 C31.1454789,4.28001835 30.6959376,4.72955963 30.6959376,5.28416514 L25.7707633,5.28416514 C25.0332587,5.28416514 24.4354972,5.88218349 24.4354972,6.61943119 L24.4354972,7.03634862 L30.6959376,7.03634862 L30.6959376,7.92207339 L26.4990202,7.92207339 C25.7615156,7.92207339 25.1637541,8.52009174 25.1637541,9.25759633 L25.1637541,9.57587156 L30.6959376,9.57587156 L30.6959376,10.501156 L24.1858092,10.501156 C23.4426532,10.501156 22.8405248,11.1035413 22.8405248,11.8466972 L22.8405248,12.2533394 L40.0094055,12.2533394 C40.7463963,12.2533394 41.3439009,11.6558349 41.3439009,10.9185872 L41.3439009,10.501156 L33.0779927,10.501156 L33.0779927,9.57587156 Z M38.216378,13.1195413 L25.7543229,13.1195413 L25.7543229,22.2467706 L28.0970752,22.2467706 L28.0970752,19.6163119 L33.9346899,19.6163119 C34.2285615,19.6163119 34.4874972,19.424422 34.5732954,19.1433945 L34.8910569,18.1004587 L28.0970752,18.1004587 L28.0970752,17.1949541 L33.9308367,17.1949541 C34.2247083,17.1949541 34.4839009,17.0028073 34.5696991,16.7217798 L34.8933688,15.6593211 L28.0970752,15.6593211 L28.0970752,14.7931193 L35.8343229,14.7931193 L35.8343229,15.6593211 L35.829956,15.6593211 L35.829956,17.1949541 L35.8343229,17.1949541 L35.8343229,17.951211 L35.829956,17.951211 L35.829956,19.9443486 C35.829956,20.5883486 35.3079743,21.1103303 34.6639743,21.1103303 L33.3387266,21.1103303 L33.6749835,22.3387339 C33.7546165,22.6287523 34.0181761,22.8301468 34.3189835,22.8301468 L35.8561578,22.8301468 C37.1603413,22.8301468 38.2174055,21.7728257 38.2174055,20.4686422 L38.2174055,17.951211 L38.216378,17.951211 L38.216378,13.1195413 Z" id="Fill-6"></path>
                <path d="M63.8322936,7.54715596 L77.3452477,7.54715596 L77.3452477,5.6426422 L63.8322936,5.6426422 L63.8322936,7.54715596 Z M70.0875963,13.1206972 C68.8442936,15.4262018 67.3209908,17.6315229 65.8372477,19.4358532 L74.9595963,18.7741284 C74.2174679,17.6315229 73.4157431,16.5086972 72.713945,15.5263853 L74.4183486,14.6242202 C76.0819083,16.849578 78.0470459,19.7166239 79.0293578,21.5607706 L77.2247706,22.6435229 C76.9445138,22.0421651 76.5234862,21.3203303 76.0418349,20.5383853 C65.5166606,21.4205138 64.2533211,21.4806239 63.3313761,21.8415413 C63.2108991,21.4205138 62.8903119,20.358055 62.6097982,19.7566972 C63.1109725,19.6362202 63.5520367,19.1350459 64.1736881,18.3531009 C64.7344587,17.7116697 66.258789,15.5263853 67.4815413,13.1206972 L61.6277431,13.1206972 L61.6277431,11.2159266 L79.410055,11.2159266 L79.410055,13.1206972 L70.0875963,13.1206972 Z" id="Fill-8"></path>
                <path d="M88.5715523,13.6618679 C88.1107083,14.4237761 87.669644,15.1453541 87.2285798,15.7870422 C88.4510752,16.1877761 89.7544881,16.6691706 91.0376073,17.170345 C92.0599927,16.2080697 92.8421945,15.0652073 93.4034789,13.6618679 L88.5715523,13.6618679 Z M84.2415706,10.5947119 L82.3568367,10.5947119 L82.3568367,6.3844367 L89.4937541,6.3844367 C89.2332771,5.8031156 88.9322128,5.12135413 88.6516991,4.56006972 L90.5765064,4.09896881 C90.9772404,4.82080367 91.4188183,5.70293211 91.7193688,6.3844367 L98.7961761,6.3844367 L98.7961761,10.5947119 L96.8115156,10.5947119 L96.8115156,8.12865688 L84.2415706,8.12865688 L84.2415706,10.5947119 Z M95.5481761,13.6618679 C94.9070018,15.3660147 94.0246165,16.7693541 92.9223413,17.9322532 C95.2676624,18.9346018 97.4732404,19.9973174 98.9767633,20.9192624 L97.4532037,22.503189 C96.0298275,21.5409138 93.7841761,20.3983083 91.318378,19.315556 C89.1932037,20.8994826 86.4867083,21.8817945 83.2189284,22.5232257 C83.0185615,22.0621248 82.4570202,21.2200697 82.0963596,20.8190789 C84.9829284,20.357978 87.4089101,19.6361431 89.3136807,18.4534642 C87.6095339,17.7719596 85.8450202,17.1102349 84.2610936,16.6090606 L84.2811303,16.5890239 C84.9027817,15.7670055 85.6246165,14.7644 86.2863413,13.6618679 L81.8957358,13.6618679 L81.8957358,11.897611 L87.3290202,11.897611 C87.9100844,10.8351523 88.4110018,9.7724367 88.8122495,8.77008807 L90.8572771,9.1911156 C90.4961028,10.0532073 90.0350018,10.9957028 89.5739009,11.897611 L99.2773138,11.897611 L99.2773138,13.6618679 L95.5481761,13.6618679 Z" id="Fill-10"></path>
                <path d="M116.177446,11.4165505 C114.172749,10.0733211 112.328602,8.54950459 110.584125,6.62495413 C109.060565,8.44957798 107.136015,10.0733211 105.111024,11.4165505 L116.177446,11.4165505 Z M111.586473,13.0605872 L111.586473,15.8472294 L116.658583,15.8472294 L116.658583,17.4709725 L111.586473,17.4709725 L111.586473,20.3780917 L119.145189,20.3780917 L119.145189,22.0421651 L102.184125,22.0421651 L102.184125,20.3780917 L109.621593,20.3780917 L109.621593,17.4709725 L104.7704,17.4709725 L104.7704,15.8472294 L109.621593,15.8472294 L109.621593,13.0605872 L104.569519,13.0605872 L104.569519,11.7774679 C103.867978,12.1982385 103.126363,12.6195229 102.404528,12.9604037 C102.124015,12.4990459 101.602804,11.837578 101.121666,11.4365872 C104.73007,9.87295413 108.359024,7.08605505 110.343684,3.95853211 L112.007501,4.74047706 C111.887538,4.92080734 111.767061,5.0813578 111.646583,5.26194495 C114.072565,7.98822018 116.939611,9.91277064 120.147281,11.4766606 C119.68618,11.8576147 119.145189,12.5190826 118.884198,13.0605872 C118.142583,12.6395596 117.420749,12.2185321 116.738987,11.7975046 L116.738987,13.0605872 L111.586473,13.0605872 Z" id="Fill-11"></path>
            </g>
        </g>
    </g>
</svg>